<svg id="Layer_1" data-name="Layer 1" xmlns="http://www.w3.org/2000/svg" viewBox="0 0 100 12.9"><title>logo_2</title><path d="M1.85,12.06a6.85,6.85,0,0,1-2.1-1L1,8.86a6.63,6.63,0,0,0,1.9.9,7.8,7.8,0,0,0,2.2.3A3.58,3.58,0,0,0,7,9.66a1.17,1.17,0,0,0,.7-1.1.89.89,0,0,0-.5-.8,8,8,0,0,0-1.7-.6,13.05,13.05,0,0,1-1.9-.7,3.05,3.05,0,0,1-1.3-1,2.35,2.35,0,0,1-.6-1.7,3.41,3.41,0,0,1,.7-2.2,5.27,5.27,0,0,1,2-1.5,8.53,8.53,0,0,1,3-.5,8.52,8.52,0,0,1,2.3.3,5.45,5.45,0,0,1,1.9.8l-1.1,2.2A5.07,5.07,0,0,0,9,2.16,5.54,5.54,0,0,0,7.15,2a3.58,3.58,0,0,0-1.9.4,1.17,1.17,0,0,0-.7,1.1,1.21,1.21,0,0,0,.23.75,1.08,1.08,0,0,0,.57.45c.3.1.7.2,1.3.4a14.5,14.5,0,0,1,1.9.6,3.81,3.81,0,0,1,1.3.9,2.2,2.2,0,0,1,.5,1.6,3.41,3.41,0,0,1-.7,2.2,5.27,5.27,0,0,1-2,1.5,9,9,0,0,1-3,.5A6.72,6.72,0,0,1,1.85,12.06Z" transform="translate(0.25 0.44)"/><path d="M27.15,0h0a2.35,2.35,0,0,1,2.3,2.8l-1.9,9.5h-2.9Z" transform="translate(0.25 0.44)"/><path d="M32.55,0h0a2.35,2.35,0,0,1,2.3,2.8l-1.4,7.1h6.1l-.5,2.3h-9Z" transform="translate(0.25 0.44)"/><path d="M99.75.16h-3.9l-5.7,4,.3-1.3a2.25,2.25,0,0,0-2.2-2.7h0l-1.2,6.2A31.25,31.25,0,0,1,83,9.26a5.36,5.36,0,0,1-2.7.6c-2.3,0-3.3-1.2-3.3-3.3a4.52,4.52,0,0,1,4.1-4.3c2.2,0,3.2,1,3.4,1.5l2-1.6c-.5-.8-1.6-2.2-4.8-2.2a7.12,7.12,0,0,0-7.4,7.3c0,3.7,3,5.2,6.2,5.2a9.52,9.52,0,0,0,1.8-.2,13.36,13.36,0,0,0,1.4-.5c.4-.2,1.3-.8,2.8-1.8l-.7,2.2h2.7l1-4.6,1.1-.8,3.5,5.3h3.2l-4.7-6.8Q95.85,3,99.75.16Z" transform="translate(0.25 0.44)"/><path d="M21.35,2.66A3.55,3.55,0,0,0,17.85,0L10,12.26h3l.3-.6h0l1.2-2.1h0l1.3-2.2h0l1.8-3h0l1.1-1.7,1,4.7h-3l-1.3,2.2h4.7l.6,2.6h3.1Z" transform="translate(0.25 0.44)"/><path d="M71.15,2.66A3.55,3.55,0,0,0,67.65,0l-7.9,12.3h3l.3-.6h0l.7-1.1.6-1h0l1.3-2.2h0l.7-1.1,1.1-1.9h0l1.1-1.7,1,4.7h-3l-1.3,2.2H70l.6,2.6h2.8Z" transform="translate(0.25 0.44)"/><path d="M59.85,6.76a4.76,4.76,0,0,0,.9-2.9,3.29,3.29,0,0,0-1.3-2.8,5.22,5.22,0,0,0-3.5-1H38.75l-.5,2.3h3.9l-2,9.9H43l2-9.9h5.4l-2,9.9h2.9l.7-3.4h0l.4-2.3h0l.9-4.3h2.2a2.86,2.86,0,0,1,1.7.4,1.49,1.49,0,0,1,.6,1.3,2.56,2.56,0,0,1-.8,1.9,3.59,3.59,0,0,1-2.2.6h-1.4L53,8.76h1.4l1.9,3.4h3l-2.1-3.8A4.14,4.14,0,0,0,59.85,6.76Z" transform="translate(0.25 0.44)"/></svg>