<?xml version="1.0" encoding="utf-8"?>
<!-- Generator: Adobe Illustrator 22.0.1, SVG Export Plug-In . SVG Version: 6.00 Build 0)  -->
<svg version="1.1" id="Layer_1" xmlns="http://www.w3.org/2000/svg" xmlns:xlink="http://www.w3.org/1999/xlink" x="0px" y="0px"
	 viewBox="0 0 100 100" style="enable-background:new 0 0 100 100;" xml:space="preserve">
<g>
	<g>
		<path d="M2.1,91.8c-0.9-0.3-1.6-0.6-2.1-1l1.2-2.2c0.6,0.4,1.2,0.7,1.9,0.9C3.7,89.8,4.5,90,5.2,90c0.8,0,1.4-0.1,1.9-0.4
			c0.5-0.3,0.7-0.6,0.7-1.1c0-0.4-0.2-0.6-0.5-0.8c-0.4-0.2-0.9-0.4-1.7-0.6c-0.8-0.2-1.4-0.5-1.9-0.7c-0.5-0.2-0.9-0.5-1.3-1
			c-0.4-0.4-0.6-1-0.6-1.7c0-0.8,0.2-1.6,0.7-2.2s1.1-1.1,2-1.5c0.8-0.3,1.8-0.5,3-0.5c0.8,0,1.6,0.1,2.3,0.3
			c0.7,0.2,1.4,0.4,1.9,0.8l-1.1,2.2c-0.5-0.3-1-0.6-1.5-0.7c-0.6-0.2-1.2-0.2-1.8-0.2c-0.8,0-1.4,0.1-1.9,0.4
			c-0.5,0.3-0.7,0.6-0.7,1.1c0,0.3,0.1,0.5,0.3,0.7c0.2,0.2,0.4,0.3,0.8,0.4c0.3,0.1,0.7,0.2,1.3,0.4c0.8,0.2,1.4,0.4,1.9,0.6
			c0.5,0.2,0.9,0.5,1.3,0.9c0.4,0.4,0.5,1,0.5,1.6c0,0.8-0.2,1.6-0.7,2.2c-0.5,0.6-1.1,1.1-2,1.5c-0.9,0.3-1.8,0.5-3,0.5
			C4,92.2,3,92.1,2.1,91.8z"/>
		<path d="M27.4,79.8L27.4,79.8c1.5,0,2.6,1.4,2.3,2.8L27.8,92h-2.9L27.4,79.8z"/>
		<path d="M32.8,79.8L32.8,79.8c1.5,0,2.6,1.4,2.3,2.8l-1.4,7.1h6.1L39.3,92h-9L32.8,79.8z"/>
		<path d="M100,79.9h-3.9l-5.7,4l0.3-1.3c0.3-1.4-0.8-2.7-2.2-2.7l0,0L87.2,86c-1.6,1.3-2.6,2-4.1,2.9c-0.6,0.3-1.3,0.6-2.7,0.6
			c-2.3,0-3.3-1.2-3.3-3.3c0-2.3,2.2-4.3,4.1-4.3c2.2,0,3.2,1,3.4,1.5l2-1.6c-0.5-0.8-1.6-2.2-4.8-2.2c-4,0-7.4,2.8-7.4,7.3
			c0,3.7,3,5.2,6.2,5.2c0.9,0,1.8-0.2,1.8-0.2c0,0,0.7-0.2,1.4-0.5c0.4-0.2,1.3-0.8,2.8-1.8L86,91.9h2.7l1-4.6
			c0.4-0.3,0.7-0.5,1.1-0.8l3.5,5.3h3.2l-4.7-6.8C95,83.6,97.4,81.8,100,79.9z"/>
		<path d="M21.6,82.5c-0.4-1.6-1.8-2.7-3.5-2.7L10.2,92h3l0.3-0.6l0,0l0,0l1.2-2.1h0l1.3-2.2h0l1.8-3l0,0l0,0l1.1-1.7l1,4.7h-3
			l-1.3,2.2h4.7l0.6,2.6H24L21.6,82.5z"/>
		<path d="M71.4,82.5c-0.4-1.6-1.8-2.7-3.5-2.7L60,92h3l0.3-0.6h0l0.7-1.1l0.6-1h0l1.3-2.2h0l0.7-1.1l1.1-1.9h0l1.1-1.7l1,4.7h-3
			l-1.3,2.2h4.7l0.6,2.6h2.8L71.4,82.5z"/>
		<path d="M60.1,86.5c0.6-0.8,0.9-1.8,0.9-2.9c0-1.2-0.4-2.1-1.3-2.8c-0.8-0.7-2-1-3.5-1h-4.7h-0.3H39l-0.5,2.3h3.9l-2,9.9h2.8
			l2-9.9h5.4l-2,9.9h2.9l0.7-3.4h0l0.4-2.3h0l0.9-4.3h2.2c0.7,0,1.3,0.1,1.7,0.4c0.4,0.3,0.6,0.7,0.6,1.3c0,0.8-0.3,1.4-0.8,1.9
			c-0.5,0.4-1.3,0.6-2.2,0.6h-1.4l-0.4,2.3h1.4l1.9,3.4h3l-2.1-3.8C58.6,87.9,59.5,87.3,60.1,86.5z"/>
	</g>
	<path d="M82.7,19.6c-0.2-0.1-0.3-0.1-0.5-0.1c-0.6,0-1.1,0.4-1.3,1L76,34.3C70.7,23.7,62.7,15.1,52.2,9l-2-1.2l-0.1,2.3
		c-1.1,20.1-14.9,49.6-33,59.8c-0.3,0.2-0.6,0.5-0.7,0.9c-0.1,0.4-0.1,0.8,0.1,1.1c0.3,0.4,0.7,0.7,1.2,0.7c0.2,0,0.5-0.1,0.7-0.2
		c9-5.1,17.6-15,24.3-27.9c5.4-10.5,9-22.1,10-31.8c9.9,6.3,17.3,14.9,21.9,25.4l-6,17.2l-9.5-22.6L39.5,74l3.4-1.4
		C48.5,70.3,55.1,69,62,69c6.8,0,13.6,1.2,19.5,3.4l1.9,0.7l0.1-2c0.3-8.1-0.4-20.4-5.5-32.7c-0.1-0.2-0.1-0.3-0.2-0.5l5.8-16.6
		C83.8,20.7,83.4,19.9,82.7,19.6z M59,39.7l9.9,23.6l7.4-21.2c3.7,10.2,4.4,20.2,4.3,27c-5.7-1.9-12.2-2.9-18.6-2.9
		c-5.9,0-11.7,0.9-16.9,2.5L59,39.7z"/>
</g>
</svg>
